<svg width="200" height="200" viewBox="0 0 200 200" fill="none" xmlns="http://www.w3.org/2000/svg">
  <!-- Structured Comparisons - Split view comparison -->
  <rect width="200" height="200" fill="transparent"/>

  <!-- Left panel - Book side -->
  <rect x="10" y="20" width="80" height="160" fill="transparent" stroke="white" stroke-width="8"/>
  <rect x="25" y="40" width="50" height="12" fill="white"/>
  <rect x="25" y="65" width="45" height="10" fill="white"/>
  <rect x="25" y="85" width="48" height="10" fill="white"/>
  <rect x="25" y="105" width="42" height="10" fill="white"/>

  <!-- Middle divider with arrows -->
  <line x1="100" y1="20" x2="100" y2="180" stroke="white" stroke-width="6"/>
  <!-- Up/down arrows showing comparison -->
  <path d="M 90 80 L 100 70 L 110 80" stroke="white" stroke-width="5" fill="none"/>
  <path d="M 90 120 L 100 130 L 110 120" stroke="white" stroke-width="5" fill="none"/>

  <!-- Right panel - Screen side -->
  <rect x="110" y="20" width="80" height="160" fill="transparent" stroke="white" stroke-width="8"/>
  <rect x="125" y="40" width="50" height="12" fill="white"/>
  <rect x="125" y="65" width="48" height="10" fill="white"/>
  <rect x="125" y="85" width="40" height="10" fill="white"/>
  <rect x="125" y="105" width="45" height="10" fill="white"/>

  <!-- Category tags at bottom -->
  <rect x="25" y="155" width="25" height="15" fill="transparent" stroke="white" stroke-width="4"/>
  <rect x="125" y="155" width="25" height="15" fill="transparent" stroke="white" stroke-width="4"/>
</svg>
